<svg id="Layer_1" data-name="Layer 1" xmlns="http://www.w3.org/2000/svg" width="450" height="52.58232" viewBox="0 0 450 52.58232"><defs><style>.cls-1{fill:#525146;}.cls-2{fill:#ba0c2f;}</style></defs><path class="cls-1" d="M51.1244,11.26085H64.61611c.0229.1167.04049.2154.05269.2969a3.69854,3.69854,0,0,1,.0176.437,2.02262,2.02262,0,0,1-.45459,1.3457,2.166,2.166,0,0,1-1.7129.542H54.1654v6.9907h7.9341v2.6563H54.1654v11.1152h-3.041Z"/><path class="cls-1" d="M66.51161,32.58215a7.77314,7.77314,0,0,1-1.32811-2.7788,13.02519,13.02519,0,0,1-.4195-3.3379,11.09717,11.09717,0,0,1,.48931-3.3203,7.86723,7.86723,0,0,1,1.4683-2.7441A7.18688,7.18688,0,0,1,69.1508,18.531a7.77121,7.77121,0,0,1,3.40819-.6988,7.92312,7.92312,0,0,1,3.4951.6988,6.553,6.553,0,0,1,2.34182,1.8701,7.648,7.648,0,0,1,1.3281,2.709,12.30209,12.30209,0,0,1,.4194,3.2505,12.89053,12.89053,0,0,1-.4194,3.3032,7.97333,7.97333,0,0,1-1.3457,2.8139,6.71055,6.71055,0,0,1-2.394,1.9571,7.903,7.903,0,0,1-3.5655.73429,8.12976,8.12976,0,0,1-3.5478-.6992A6.41739,6.41739,0,0,1,66.51161,32.58215Zm3.6704-.4892a4.079,4.079,0,0,0,2.2368.5595,4.23869,4.23869,0,0,0,2.30719-.5766,4.02015,4.02015,0,0,0,1.3979-1.4683,6.39705,6.39705,0,0,0,.68161-2.0097,12.999,12.999,0,0,0,.19239-2.2022,12.11355,12.11355,0,0,0-.19239-2.1499,5.99357,5.99357,0,0,0-.68161-1.9224,3.781,3.781,0,0,0-1.36329-1.3803,4.37111,4.37111,0,0,0-2.2719-.5244,4.31428,4.31428,0,0,0-2.2193.5244,4.01626,4.01626,0,0,0-1.4155,1.3803,6.07927,6.07927,0,0,0-.752,1.9224,10.27152,10.27152,0,0,0-.227,2.1499,12.94749,12.94749,0,0,0,.1924,2.2022,5.89546,5.89546,0,0,0,.7163,2.0097A4.593,4.593,0,0,0,70.182,32.093Z"/><path class="cls-1" d="M83.9076,18.14665c.3726-.023.5825-.0352.62939-.0352a2.69357,2.69357,0,0,1,1.4507.4024,1.7913,1.7913,0,0,1,.7861,1.34569,5.11112,5.11112,0,0,1,1.4683-1.38089,4.024,4.024,0,0,1,2.2719-.6465,5.24123,5.24123,0,0,1,.82129.0699,3.71437,3.71437,0,0,1,.8213.227,1.65355,1.65355,0,0,1,.6294.437,1.07788,1.07788,0,0,1,.2446.7339,3.05266,3.05266,0,0,1-.2797,1.2061,6.8437,6.8437,0,0,1-.5591,1.0659,3.3202,3.3202,0,0,0-4.4043-.1572,2.68259,2.68259,0,0,0-.6641.7514,1.712,1.712,0,0,0-.24459.874v11.6045H83.9076Z"/><path class="cls-1" d="M190.1888,21.88635a5.37291,5.37291,0,0,1-.4716-.9785,2.59258,2.59258,0,0,1-.19239-.8388,1.10037,1.10037,0,0,1,.5591-.8565,5.79709,5.79709,0,0,1,1.4507-.71631,11.36993,11.36993,0,0,1,1.9751-.4893,13.34738,13.34738,0,0,1,2.1318-.1748,9.78871,9.78871,0,0,1,2.97121.3843,4.53181,4.53181,0,0,1,1.9223,1.1533,4.26758,4.26758,0,0,1,1.0313,1.9229,10.71272,10.71272,0,0,1,.29739,2.6562v6.8858a9.43057,9.43057,0,0,0,.06979,1.311,1.38678,1.38678,0,0,0,.26221.6987.89938.89938,0,0,0,.5239.2974,4.26582,4.26582,0,0,0,.8565.06981v1.398a4.74582,4.74582,0,0,1-.7691.17481,6.22608,6.22608,0,0,1-.9433.0703,3.89594,3.89594,0,0,1-1.8877-.437,1.90281,1.90281,0,0,1-.94389-1.5557,7.9777,7.9777,0,0,1-2.0972,1.4859,7.22989,7.22989,0,0,1-3.2158.6113,8.29213,8.29213,0,0,1-1.83492-.20951,4.4101,4.4101,0,0,1-1.67779-.769,4.29605,4.29605,0,0,1-1.24071-1.503,5.21883,5.21883,0,0,1-.48929-2.4121,4.59677,4.59677,0,0,1,.92629-2.9707,6.59866,6.59866,0,0,1,2.28909-1.8178,10.2806,10.2806,0,0,1,2.9189-.9087,22.4492,22.4492,0,0,1,2.84871-.2798h.73379a6.82891,6.82891,0,0,1,.73391.0351v-.5244a3.42981,3.42981,0,0,0-.75141-2.394,3.87419,3.87419,0,0,0-2.88328-.8218,7.67943,7.67943,0,0,0-2.65682.4023,9.53356,9.53356,0,0,0-2.09711,1.1006Zm8.7735,4.4742h-1.01371a18.951,18.951,0,0,0-2.272.1401,8.15972,8.15972,0,0,0-2.09711.5239,4.0034,4.0034,0,0,0-1.53808,1.0664,2.63914,2.63914,0,0,0-.59421,1.7998,2.92182,2.92182,0,0,0,.6293,1.8526,2.83367,2.83367,0,0,0,2.3418.8042,5.65473,5.65473,0,0,0,1.73-.2622,6.65766,6.65766,0,0,0,1.45068-.6465,3.83331,3.83331,0,0,0,.99609-.8389,1.40959,1.40959,0,0,0,.36721-.874Z"/><path class="cls-1" d="M216.1942,22.06115a4.89221,4.89221,0,0,0-1.72951-1.2754,5.5742,5.5742,0,0,0-2.4297-.5419,6.3038,6.3038,0,0,0-.99609.0874,3.67461,3.67461,0,0,0-1.0136.3144,2.12375,2.12375,0,0,0-.78661.647,1.6985,1.6985,0,0,0-.31449,1.04835,1.665,1.665,0,0,0,.99609,1.6079,11.80736,11.80736,0,0,0,2.4644.8389,16.338,16.338,0,0,1,2.0273.6118,6.67242,6.67242,0,0,1,1.7305.94389,4.146,4.146,0,0,1,1.1884,1.4502,4.82549,4.82549,0,0,1,.4366,2.1674,4.63364,4.63364,0,0,1-.52451,2.2544,4.8805,4.8805,0,0,1-1.3984,1.6079,6.271,6.271,0,0,1-2.0439.9786,8.87444,8.87444,0,0,1-2.42971.332,11.49533,11.49533,0,0,1-2.20219-.1924,8.50018,8.50018,0,0,1-1.6425-.4717,3.52482,3.52482,0,0,1-1.2237-.7163,1.09252,1.09252,0,0,1-.34959-.7514,2.11125,2.11125,0,0,1,.2446-.94391q.24465-.48929.62939-1.1186.24393.2094.6817.5244a6.24292,6.24292,0,0,0,1.0483.5942,8.2466,8.2466,0,0,0,1.3457.4717,6.18243,6.18243,0,0,0,1.5733.19241,6.02117,6.02117,0,0,0,1.2231-.12261,3.40453,3.40453,0,0,0,1.06641-.40179,2.20414,2.20414,0,0,0,.7686-.7691,2.319,2.319,0,0,0,.2968-1.2231,2.13125,2.13125,0,0,0-.31441-1.2061,2.58919,2.58919,0,0,0-.8389-.7866,5.086,5.086,0,0,0-1.17089-.5068q-.64665-.19125-1.31051-.3321a14.25552,14.25552,0,0,1-1.94-.5415,5.8398,5.8398,0,0,1-1.6425-.8916,4.20835,4.20835,0,0,1-1.1539-1.3979,4.3385,4.3385,0,0,1-.437-2.0274,4.12213,4.12213,0,0,1,1.8179-3.5127,6.33155,6.33155,0,0,1,1.90481-.874,8.24306,8.24306,0,0,1,2.21969-.2969,9.8886,9.8886,0,0,1,2.42922.2793,7.06648,7.06648,0,0,1,1.76559.6641,2.96923,2.96923,0,0,1,.94341.7168,1.09561,1.09561,0,0,1,.24409.6465,2.58725,2.58725,0,0,1-.19141.8916,7.11131,7.11131,0,0,1-.47259.9961Z"/><path class="cls-1" d="M234.3671,34.60955h-1.18851l-5.6631-16.2183a4.29254,4.29254,0,0,1,1.5381-.2798,1.98664,1.98664,0,0,1,1.4678.5596,3.49009,3.49009,0,0,1,.8388,1.4331l3.8457,11.919,3.8448-11.6045a5.63841,5.63841,0,0,1,.2793-.7867,3.01194,3.01194,0,0,1,.4716-.7514,2.1409,2.1409,0,0,1,1.7305-.7691,2.71911,2.71911,0,0,1,1.293.315l-6.3613,18.4902q-.38536,1.1184-.8389,2.1323a6.93219,6.93219,0,0,1-1.11819,1.76521,4.99035,4.99035,0,0,1-1.626,1.2055,5.40411,5.40411,0,0,1-2.3242.45511,5.6256,5.6256,0,0,1-2.2197-.3848,1.26072,1.26072,0,0,1-.89059-1.1884,2.26,2.26,0,0,1,.2617-1.0137,6.42278,6.42278,0,0,1,.542-.9087,5.65569,5.65569,0,0,0,.8564.5767,2.87612,2.87612,0,0,0,1.4502.332,2.44156,2.44156,0,0,0,1.97561-.9087,8.4653,8.4653,0,0,0,1.3457-2.7964Z"/><path class="cls-1" d="M246.52529,32.58215a7.75508,7.75508,0,0,1-1.3281-2.7788,13.00264,13.00264,0,0,1-.42-3.3379,11.11377,11.11377,0,0,1,.48929-3.3203,7.87475,7.87475,0,0,1,1.4678-2.7441,7.19912,7.19912,0,0,1,2.4296-1.8701,7.77162,7.77162,0,0,1,3.40829-.6988,7.92616,7.92616,0,0,1,3.49509.6988,6.55785,6.55785,0,0,1,2.34179,1.8701,7.65591,7.65591,0,0,1,1.3281,2.709,12.28054,12.28054,0,0,1,.41992,3.2505,12.86893,12.86893,0,0,1-.41992,3.3032,7.97333,7.97333,0,0,1-1.3457,2.8139,6.70013,6.70013,0,0,1-2.39451,1.9571,7.90016,7.90016,0,0,1-3.56451.73429,8.12784,8.12784,0,0,1-3.54782-.6992A6.40862,6.40862,0,0,1,246.52529,32.58215Zm3.66992-.4892a4.07953,4.07953,0,0,0,2.2373.5595,4.23679,4.23679,0,0,0,2.30661-.5766,4.025,4.025,0,0,0,1.3985-1.4683,6.435,6.435,0,0,0,.68161-2.0097,13.10081,13.10081,0,0,0,.19141-2.2022,12.20812,12.20812,0,0,0-.19141-2.1499,6.03,6.03,0,0,0-.68161-1.9224,3.78862,3.78862,0,0,0-1.36328-1.3803,4.37578,4.37578,0,0,0-2.27252-.5244,4.317,4.317,0,0,0-2.2197.5244,4.02315,4.02315,0,0,0-1.415,1.3803,6.07913,6.07913,0,0,0-.752,1.9224,10.30449,10.30449,0,0,0-.2265,2.1499,12.99855,12.99855,0,0,0,.1914,2.2022,5.88612,5.88612,0,0,0,.7168,2.0097,4.593,4.593,0,0,0,1.39841,1.48545Z"/><path class="cls-1" d="M264.03108,18.04165q.4542-.03435.62992-.0347a2.60856,2.60856,0,0,1,1.69528.524,2.2713,2.2713,0,0,1,.64651,1.8525V28.528a9.65561,9.65561,0,0,0,.19242,2.167,1.99749,1.99749,0,0,0,.7861,1.2232,3.04654,3.04654,0,0,0,1.1358.5244,6.39765,6.39765,0,0,0,1.416.1396,5.44773,5.44773,0,0,0,1.7305-.2617,5.35466,5.35466,0,0,0,1.3457-.647,3.49176,3.49176,0,0,0,.873-.8212,1.3951,1.3951,0,0,0,.3154-.7867V18.04165q.45272-.03435.6289-.0347a2.60882,2.60882,0,0,1,1.69541.524,2.27172,2.27172,0,0,1,.64642,1.8525v14.2612h-2.9707v-1.5381a6.27137,6.27137,0,0,1-1.958,1.4332,7.27453,7.27453,0,0,1-3.25089.6293,6.48164,6.48164,0,0,1-3.1456-.6293,4.1668,4.1668,0,0,1-1.66009-1.608,5.35918,5.35918,0,0,1-.64652-2.14941q-.10546-1.1703-.1055-2.2544Z"/><path class="cls-1" d="M290.68147,9.86245q.45273-.03435.62891-.0347a2.61053,2.61053,0,0,1,1.69528.524,2.27149,2.27149,0,0,1,.64652,1.8525v22.4404h-2.97071Zm3.77442,16.1836v-1.1533l6.01269-5.9771a2.93419,2.93419,0,0,1,1.99222-.90871,2.20857,2.20857,0,0,1,.69919.1045,2.91093,2.91093,0,0,1,.5762.2622,3.70187,3.70187,0,0,1,.50681.3672l-6.71091,6.606,7.7598,9.26269a4.93833,4.93833,0,0,1-1.74811.3149,3.36224,3.36224,0,0,1-2.62109-1.2583Z"/><path class="cls-1" d="M308.1288,18.14665c.3262-.023.52442-.0352.59369-.0352a2.69353,2.69353,0,0,1,1.4512.4024,1.82291,1.82291,0,0,1,.7861,1.3803,7.39,7.39,0,0,1,2.18461-1.4331,7.82315,7.82315,0,0,1,3.26757-.6289,5.54185,5.54185,0,0,1,3.63572,1.0484,4.82611,4.82611,0,0,1,1.6426,2.6216,7.76427,7.76427,0,0,1,.21,1.55559c.0224.57131.03509,1.12451.03509,1.66021v9.92669h-2.97162V24.823q0-.6636-.01761-1.2759a3.94679,3.94679,0,0,0-.1914-1.1363,2.31666,2.31666,0,0,0-1.01371-1.3979,4.279,4.279,0,0,0-2.27249-.4893,5.68973,5.68973,0,0,0-3.1806.7862,2.148,2.148,0,0,0-1.18851,1.6953V34.6447h-2.9707Z"/><path class="cls-1" d="M326.69719,32.58215a7.75666,7.75666,0,0,1-1.32818-2.7788,13.00665,13.00665,0,0,1-.4199-3.3379,11.11279,11.11279,0,0,1,.48932-3.3203,7.87446,7.87446,0,0,1,1.46768-2.7441,7.19955,7.19955,0,0,1,2.42969-1.8701,7.77158,7.77158,0,0,1,3.40821-.6988,7.92581,7.92581,0,0,1,3.49508.6988,6.5564,6.5564,0,0,1,2.3418,1.8701,7.65466,7.65466,0,0,1,1.32818,2.709,12.286,12.286,0,0,1,.4199,3.2505,12.87292,12.87292,0,0,1-.4199,3.3032,7.97435,7.97435,0,0,1-1.3457,2.8139,6.69963,6.69963,0,0,1-2.39462,1.9571,7.89963,7.89963,0,0,1-3.56439.73429,8.12856,8.12856,0,0,1-3.54792-.6992A6.40889,6.40889,0,0,1,326.69719,32.58215Zm3.66989-.4892a4.07957,4.07957,0,0,0,2.23731.5595,4.23665,4.23665,0,0,0,2.30658-.5766,4.025,4.025,0,0,0,1.3985-1.4683,6.43527,6.43527,0,0,0,.68161-2.0097,13.10716,13.10716,0,0,0,.1914-2.2022,12.21667,12.21667,0,0,0-.1914-2.1499,6.03035,6.03035,0,0,0-.68161-1.9224,3.7888,3.7888,0,0,0-1.36332-1.3803,4.37563,4.37563,0,0,0-2.27249-.5244,4.317,4.317,0,0,0-2.21969.5244,4.02283,4.02283,0,0,0-1.4151,1.3803,6.07908,6.07908,0,0,0-.7519,1.9224,10.29705,10.29705,0,0,0-.22659,2.1499,13.00788,13.00788,0,0,0,.19138,2.2022,5.88738,5.88738,0,0,0,.71679,2.0097,4.59364,4.59364,0,0,0,1.39853,1.48545Z"/><path class="cls-1" d="M341.4305,18.35615c.25592-.0699.50689-.1275.751-.1748a4.22488,4.22488,0,0,1,.7871-.0699,2.207,2.207,0,0,1,2.20221,1.8179l3.59958,11.5347,3.3555-8.2144-1.78229-4.9282a4.60765,4.60765,0,0,1,1.3985-.21,2.18883,2.18883,0,0,1,2.167,1.6778l4.1943,11.7094,2.86618-11.08a4.82249,4.82249,0,0,1,.73441-1.6255,1.72432,1.72432,0,0,1,1.5029-.6817,4.01849,4.01849,0,0,1,1.43258.2798l-4.998,16.3931h-2.97171l-3.2851-8.4937-3.60058,8.4937h-2.65632Z"/><path class="cls-1" d="M374.0927,12.83365a1.97475,1.97475,0,0,1,.542-1.4331,1.899,1.899,0,0,1,2.68558-.00582l.00583.00582a1.97934,1.97934,0,0,1,.5419,1.4331,1.88777,1.88777,0,0,1-3.7753.04342v-.00076Q374.09248,12.855,374.0927,12.83365Zm.52441,5.208c.30271-.0229.51169-.0347.62891-.0347a2.60853,2.60853,0,0,1,1.69531.524,2.27131,2.27131,0,0,1,.64652,1.8525v11.1152a2.57083,2.57083,0,0,0,.2969,1.4331q.29727.4197,1.3808.4195v1.2583a4.72519,4.72519,0,0,1-.85641.1748,8.3567,8.3567,0,0,1-1.0655.0703,3.13137,3.13137,0,0,1-1.5556-.3149,1.98494,1.98494,0,0,1-.80371-.8389,3.14671,3.14671,0,0,1-.31451-1.1709q-.05265-.64605-.05271-1.2759Z"/><path class="cls-1" d="M383.00569,13.18325c.3028-.0229.5127-.0351.629-.0351a2.60888,2.60888,0,0,1,1.69531.5244,2.26861,2.26861,0,0,1,.64643,1.8525v2.6914h5.209v2.5166h-5.209v9.0181q0,2.86665,2.27249,2.8662a2.84438,2.84438,0,0,0,1.0488-.19241,4.38,4.38,0,0,0,.87411-.4541,5.50333,5.50333,0,0,0,.64639-.5068,2.56634,2.56634,0,0,0,.3321-.3496,9.73438,9.73438,0,0,1,.71579,1.01361,1.82361,1.82361,0,0,1,.29779.9439,1.09228,1.09228,0,0,1-.3144.6816,3.22351,3.22351,0,0,1-.874.6812,5.70765,5.70765,0,0,1-1.38089.52439,7.25909,7.25909,0,0,1-1.7998.2099,5.29368,5.29368,0,0,1-2.9014-.6992,3.79839,3.79839,0,0,1-1.538-1.92229,5.17591,5.17591,0,0,1-.2969-1.4507q-.05274-.7866-.0528-1.5552Z"/><path class="cls-1" d="M395.4139,34.53975a2.23019,2.23019,0,0,1-.55851-1.5376,2.19157,2.19157,0,0,1,.57608-1.5381,1.847,1.847,0,0,1,1.416-.6294,1.88444,1.88444,0,0,1,1.45019.6294,2.19181,2.19181,0,0,1,.57721,1.5381,2.23523,2.23523,0,0,1-.5596,1.5376,1.87062,1.87062,0,0,1-1.4678.6293A1.832,1.832,0,0,1,395.4139,34.53975Z"/><path class="cls-2" d="M178.3617,26.52265a20.551,20.551,0,0,1-14.01761,5.9541c-2.7383,0-4.69628-.8467-5.69429-2.0323,6.40228-1.3222,11.4805-5.1181,11.4805-9.9082,0-3.8261-2.8946-5.5654-6.61431-5.5654-5.69038,0-10.30179,4.5938-10.30179,11.0371a14.75207,14.75207,0,0,0,.13971,1.9844c-.1904.0039-.6504.0039-.84771.0039a24.30787,24.30787,0,0,1-8.32419-1.4522c7.61619-9.1171,11.5742-15.7216,11.5742-21.4677,0-3.1358-1.60451-5.0762-4.7558-5.0762-5.28621,0-9.3145,7.2061-12.80281,23.7764-.24609,1.1777-1.09759,5.4297-1.09759,5.4297-1.208,1.4443-2.8985,2.9218-4.96,2.9541-1.4863.0224-2.49409-.8116-2.49409-2.8135,0-2.9903,1.64349-7.5205,2.6699-10.9404.4805-1.6016-2.8643-2.5342-3.5039-.9219-.4619,1.1523-.874,2.3515-1.3115,3.3955-3.20021,7.6445-6.91409,11.4404-10.64259,11.4404-2.0723,0-3.2061-1.6299-3.1123-5.166,7.1123-5.6504,13.0859-14.6436,13.01069-22C126.7318,2.36635,125.4681.008,122.0717.008c-4.8838,0-8.34379,6.7549-10.3897,15.627a67.79143,67.79143,0,0,0-1.626,10.1718,41.17862,41.17862,0,0,1-9.71969,5.1914c-2.1465.8262-3.55471,4.71,0,3.44629a48.96711,48.96711,0,0,0,9.7676-4.85639c.3984,3.61619,2.4101,6.04,6.17969,6.04,3.458,0,6.77049-1.78811,9.52631-5.5a5.24757,5.24757,0,0,0,5.13531,5.35749h0q.25971.0055.519-.01469a7.40779,7.40779,0,0,0,4.7598-1.6846,56.349,56.349,0,0,0-1.19431,11.126c.0683,5.166,2.0224,7.6699,5.4541,7.6699,4.8183,0,7.34371-4.6054,7.36231-11.622a26.6473,26.6473,0,0,0-2.38869-10.8321,24.02592,24.02592,0,0,0,7.2002.9864c.56449,0,1.18069-.0118,1.708-.0401,1.6123,2.6319,4.6279,4.71,9.98048,4.71a22.27331,22.27331,0,0,0,14.0156-5.0137c3.4902-2.7344,1.1504-5.3223,0-4.248M122.08141,3.11055c.7129,0,1.1026.5097,1.1026,1.9882,0,3.1875-2.58991,11.2119-8.9444,17.4141,2.22849-13.334,5.81249-19.4023,7.8418-19.4023m28.8741-.004c.82029,0,1.13859.7657,1.13859,1.8643,0,4.1475-4.5224,12.124-10.1006,19.1758,3.294-15.6065,7.08791-21.0401,8.962-21.0401M140.8158,48.99425c-1.4482,0-1.99019-1.582-1.99019-4.0781a85.74483,85.74483,0,0,1,1.9619-14.8974l.50191-.5245a25.96616,25.96616,0,0,1,2.7881,11.8018c0,3.2764-.748,7.6982-3.26171,7.6982m16.36431-23.0136c0-3.96,2.43359-7.9082,6.39738-7.9082a2.404,2.404,0,0,1,2.71192,2.5322c0,2.5478-2.93941,5.7559-8.958,6.9121a8.25849,8.25849,0,0,1-.15131-1.5361"/><path class="cls-2" d="M135.54241,10.64275a2.80443,2.80443,0,0,1-2.7705,2.6513,2.518,2.518,0,0,1-2.53578-2.50009h0q-.00052-.07564.00347-.1512a2.80185,2.80185,0,0,1,2.77049-2.6524,2.51721,2.51721,0,0,1,2.53587,2.49841q.00055.077-.00357.154"/></svg>